# xmcd
#
# Track frame offsets: 
#        150
#        10281
#        20993
#        33847
#        46369
#        57179
#        72361
#        85877
#        96145
#        110648
#        121464
#        133449
#        144415
#        157912
#        171386
#
# Disc length: 2445 seconds
#
# Revision: 0
# Processed by: cddbd v1.5.2PL0 Copyright (c) Steve Scherf et al.
# Submitted via: ExactAudioCopy v0.95b3
#
DISCID=d5098b0f
DTITLE=Various Artist - Country Best
DYEAR=1900
DGENRE=Country
TTITLE0=George Jones/Jambalaya
TTITLE1=George Jones/Hey Good Lookin'
TTITLE2=Johnny Rodriguez/I Really Don't Want To Know
TTITLE3=Faron Young/I Can't Stop Loving You
TTITLE4=Jonny Rodriguez/Release Me
TTITLE5=George Jones/Cold Cold Heart
TTITLE6=Faron Young/Gentle On My Mind
TTITLE7=George Jones/I Walk The Line
TTITLE8=Roger Miller/Green Green Grass Of Home
TTITLE9=Dave Dudley/Oh Lonesome Me
TTITLE10=Roger Miller/By The Time I Get To Phoenix
TTITLE11=Jerry Lee Lewis and Linda Gail Lewis
TTITLE12=Roger Miller/The Elusive Dreams
TTITLE13=Faron Young/San Antonio Rose
TTITLE14=Lester Flatt and Earl Scruggs/We'll Meet Again Sweetheart
EXTD=
EXTT0=
EXTT1=
EXTT2=
EXTT3=
EXTT4=
EXTT5=
EXTT6=
EXTT7=
EXTT8=
EXTT9=
EXTT10=
EXTT11=
EXTT12=
EXTT13=
EXTT14=
PLAYORDER=
